<?xml version="1.0" encoding="UTF-8" standalone="no"?>
<!DOCTYPE svg PUBLIC "-//W3C//DTD SVG 1.1//EN"
 "http://www.w3.org/Graphics/SVG/1.1/DTD/svg11.dtd">
<!-- Generated by graphviz version 15.1.0 (20260618.0150)
 -->
<!-- Title: system_architecture Pages: 1 -->
<svg width="1463pt" height="320pt"
 viewBox="0.00 0.00 1463.00 320.00" xmlns="http://www.w3.org/2000/svg" xmlns:xlink="http://www.w3.org/1999/xlink">
<g id="graph0" class="graph" transform="scale(1 1) rotate(0) translate(21.6 298.6)">
<title>system_architecture</title>
<polygon fill="white" stroke="none" points="-21.6,21.6 -21.6,-298.6 1441.17,-298.6 1441.17,21.6 -21.6,21.6"/>
<text xml:space="preserve" text-anchor="middle" x="709.78" y="-258.75" font-family="Helvetica,sans-Serif" font-size="15.00" fill="#111111">Dugong Watch — System Architecture</text>
<g id="clust1" class="cluster">
<title>cluster_data</title>
<path fill="white" stroke="#9a9a9a" d="M12,-39C12,-39 157,-39 157,-39 163,-39 169,-45 169,-51 169,-51 169,-231 169,-231 169,-237 163,-243 157,-243 157,-243 12,-243 12,-243 6,-243 0,-237 0,-231 0,-231 0,-51 0,-51 0,-45 6,-39 12,-39"/>
<text xml:space="preserve" text-anchor="middle" x="84.5" y="-229.5" font-family="Helvetica,sans-Serif" font-size="10.00" fill="#555555"> &#160;DATA SOURCES &#160;(free / public) &#160;</text>
</g>
<g id="clust2" class="cluster">
<title>cluster_gee</title>
<path fill="white" stroke="#9a9a9a" d="M219,-97C219,-97 456.58,-97 456.58,-97 462.58,-97 468.58,-103 468.58,-109 468.58,-109 468.58,-163 468.58,-163 468.58,-169 462.58,-175 456.58,-175 456.58,-175 219,-175 219,-175 213,-175 207,-169 207,-163 207,-163 207,-109 207,-109 207,-103 213,-97 219,-97"/>
<text xml:space="preserve" text-anchor="middle" x="281.38" y="-161.5" font-family="Helvetica,sans-Serif" font-size="10.00" fill="#555555"> &#160;GOOGLE EARTH ENGINE &#160;</text>
</g>
<g id="clust3" class="cluster">
<title>cluster_ml</title>
<path fill="white" stroke="#9a9a9a" d="M518.58,-100C518.58,-100 775.66,-100 775.66,-100 781.66,-100 787.66,-106 787.66,-112 787.66,-112 787.66,-166 787.66,-166 787.66,-172 781.66,-178 775.66,-178 775.66,-178 518.58,-178 518.58,-178 512.58,-178 506.58,-172 506.58,-166 506.58,-166 506.58,-112 506.58,-112 506.58,-106 512.58,-100 518.58,-100"/>
<text xml:space="preserve" text-anchor="middle" x="601.21" y="-164.5" font-family="Helvetica,sans-Serif" font-size="10.00" fill="#555555"> &#160;TRACK B — MACHINE LEARNING &#160;</text>
</g>
<g id="clust4" class="cluster">
<title>cluster_risk</title>
<path fill="white" stroke="#9a9a9a" d="M837.66,-39C837.66,-39 1271.53,-39 1271.53,-39 1277.53,-39 1283.53,-45 1283.53,-51 1283.53,-51 1283.53,-168 1283.53,-168 1283.53,-174 1277.53,-180 1271.53,-180 1271.53,-180 837.66,-180 837.66,-180 831.66,-180 825.66,-174 825.66,-168 825.66,-168 825.66,-51 825.66,-51 825.66,-45 831.66,-39 837.66,-39"/>
<text xml:space="preserve" text-anchor="middle" x="900.78" y="-166.5" font-family="Helvetica,sans-Serif" font-size="10.00" fill="#555555"> &#160;TRACK C — RISK MODEL &#160;</text>
</g>
<g id="clust5" class="cluster">
<title>cluster_out</title>
<path fill="white" stroke="#9a9a9a" d="M1333.53,-8C1333.53,-8 1399.57,-8 1399.57,-8 1405.57,-8 1411.57,-14 1411.57,-20 1411.57,-20 1411.57,-137 1411.57,-137 1411.57,-143 1405.57,-149 1399.57,-149 1399.57,-149 1333.53,-149 1333.53,-149 1327.53,-149 1321.53,-143 1321.53,-137 1321.53,-137 1321.53,-20 1321.53,-20 1321.53,-14 1327.53,-8 1333.53,-8"/>
<text xml:space="preserve" text-anchor="middle" x="1360.28" y="-135.5" font-family="Helvetica,sans-Serif" font-size="10.00" fill="#555555"> &#160;DELIVERY &#160;</text>
</g>
<!-- s2 -->
<g id="node1" class="node">
<title>s2</title>
<path fill="white" stroke="#222222" stroke-width="1.1" d="M128.89,-151.7C128.89,-151.7 39.11,-151.7 39.11,-151.7 33.11,-151.7 27.11,-145.7 27.11,-139.7 27.11,-139.7 27.11,-122.3 27.11,-122.3 27.11,-116.3 33.11,-110.3 39.11,-110.3 39.11,-110.3 128.89,-110.3 128.89,-110.3 134.89,-110.3 140.89,-116.3 140.89,-122.3 140.89,-122.3 140.89,-139.7 140.89,-139.7 140.89,-145.7 134.89,-151.7 128.89,-151.7"/>
<text xml:space="preserve" text-anchor="middle" x="84" y="-134.05" font-family="Helvetica,sans-Serif" font-size="11.00" fill="#111111">Sentinel&#45;2</text>
<text xml:space="preserve" text-anchor="middle" x="84" y="-120.55" font-family="Helvetica,sans-Serif" font-size="11.00" fill="#111111">surface reflectance</text>
</g>
<!-- mask -->
<g id="node4" class="node">
<title>mask</title>
<path fill="white" stroke="#222222" stroke-width="1.1" d="M310.04,-146.7C310.04,-146.7 227,-146.7 227,-146.7 221,-146.7 215,-140.7 215,-134.7 215,-134.7 215,-117.3 215,-117.3 215,-111.3 221,-105.3 227,-105.3 227,-105.3 310.04,-105.3 310.04,-105.3 316.04,-105.3 322.04,-111.3 322.04,-117.3 322.04,-117.3 322.04,-134.7 322.04,-134.7 322.04,-140.7 316.04,-146.7 310.04,-146.7"/>
<text xml:space="preserve" text-anchor="middle" x="268.52" y="-129.05" font-family="Helvetica,sans-Serif" font-size="11.00" fill="#111111">Cloud mask +</text>
<text xml:space="preserve" text-anchor="middle" x="268.52" y="-115.55" font-family="Helvetica,sans-Serif" font-size="11.00" fill="#111111">annual composite</text>
</g>
<!-- s2&#45;&gt;mask -->
<g id="edge1" class="edge">
<title>s2&#45;&gt;mask</title>
<path fill="none" stroke="#333333" d="M141.25,-129.46C161.87,-128.89 185.3,-128.25 206.34,-127.68"/>
<polygon fill="#333333" stroke="#333333" points="206.13,-130.13 213.06,-127.49 205.99,-125.23 206.13,-130.13"/>
</g>
<!-- ls -->
<g id="node2" class="node">
<title>ls</title>
<path fill="white" stroke="#222222" stroke-width="1.1" d="M131.89,-88.7C131.89,-88.7 36.11,-88.7 36.11,-88.7 30.11,-88.7 24.11,-82.7 24.11,-76.7 24.11,-76.7 24.11,-59.3 24.11,-59.3 24.11,-53.3 30.11,-47.3 36.11,-47.3 36.11,-47.3 131.89,-47.3 131.89,-47.3 137.89,-47.3 143.89,-53.3 143.89,-59.3 143.89,-59.3 143.89,-76.7 143.89,-76.7 143.89,-82.7 137.89,-88.7 131.89,-88.7"/>
<text xml:space="preserve" text-anchor="middle" x="84" y="-71.05" font-family="Helvetica,sans-Serif" font-size="11.00" fill="#111111">Landsat 8/9</text>
<text xml:space="preserve" text-anchor="middle" x="84" y="-57.55" font-family="Helvetica,sans-Serif" font-size="11.00" fill="#111111">surface temperature</text>
</g>
<!-- thr -->
<g id="node9" class="node">
<title>thr</title>
<path fill="white" stroke="#222222" stroke-width="1.1" d="M945.95,-88.7C945.95,-88.7 851.66,-88.7 851.66,-88.7 845.66,-88.7 839.66,-82.7 839.66,-76.7 839.66,-76.7 839.66,-59.3 839.66,-59.3 839.66,-53.3 845.66,-47.3 851.66,-47.3 851.66,-47.3 945.95,-47.3 945.95,-47.3 951.95,-47.3 957.95,-53.3 957.95,-59.3 957.95,-59.3 957.95,-76.7 957.95,-76.7 957.95,-82.7 951.95,-88.7 945.95,-88.7"/>
<text xml:space="preserve" text-anchor="middle" x="898.8" y="-71.05" font-family="Helvetica,sans-Serif" font-size="11.00" fill="#111111">Threat layer</text>
<text xml:space="preserve" text-anchor="middle" x="898.8" y="-57.55" font-family="Helvetica,sans-Serif" font-size="11.00" fill="#111111">(5 weighted factors)</text>
</g>
<!-- ls&#45;&gt;thr -->
<g id="edge8" class="edge">
<title>ls&#45;&gt;thr</title>
<path fill="none" stroke="#333333" stroke-dasharray="5,2" d="M144.43,-68C210.92,-68 321.83,-68 417.31,-68 417.31,-68 417.31,-68 564.6,-68 656.83,-68 763.42,-68 830.71,-68"/>
<polygon fill="#333333" stroke="#333333" points="830.61,-70.45 837.61,-68 830.61,-65.55 830.61,-70.45"/>
</g>
<!-- ead -->
<g id="node3" class="node">
<title>ead</title>
<path fill="white" stroke="#222222" stroke-width="1.1" d="M122.14,-214.7C122.14,-214.7 45.86,-214.7 45.86,-214.7 39.86,-214.7 33.86,-208.7 33.86,-202.7 33.86,-202.7 33.86,-185.3 33.86,-185.3 33.86,-179.3 39.86,-173.3 45.86,-173.3 45.86,-173.3 122.14,-173.3 122.14,-173.3 128.14,-173.3 134.14,-179.3 134.14,-185.3 134.14,-185.3 134.14,-202.7 134.14,-202.7 134.14,-208.7 128.14,-214.7 122.14,-214.7"/>
<text xml:space="preserve" text-anchor="middle" x="84" y="-197.05" font-family="Helvetica,sans-Serif" font-size="11.00" fill="#111111">EAD habitat</text>
<text xml:space="preserve" text-anchor="middle" x="84" y="-183.55" font-family="Helvetica,sans-Serif" font-size="11.00" fill="#111111">survey polygons</text>
</g>
<!-- rf -->
<g id="node6" class="node">
<title>rf</title>
<path fill="white" stroke="#222222" stroke-width="1.1" d="M600.62,-149.7C600.62,-149.7 526.58,-149.7 526.58,-149.7 520.58,-149.7 514.58,-143.7 514.58,-137.7 514.58,-137.7 514.58,-120.3 514.58,-120.3 514.58,-114.3 520.58,-108.3 526.58,-108.3 526.58,-108.3 600.62,-108.3 600.62,-108.3 606.62,-108.3 612.62,-114.3 612.62,-120.3 612.62,-120.3 612.62,-137.7 612.62,-137.7 612.62,-143.7 606.62,-149.7 600.62,-149.7"/>
<text xml:space="preserve" text-anchor="middle" x="563.6" y="-132.05" font-family="Helvetica,sans-Serif" font-size="11.00" fill="#111111">Random Forest</text>
<text xml:space="preserve" text-anchor="middle" x="563.6" y="-118.55" font-family="Helvetica,sans-Serif" font-size="11.00" fill="#111111">classifier</text>
</g>
<!-- ead&#45;&gt;rf -->
<g id="edge2" class="edge">
<title>ead&#45;&gt;rf</title>
<path fill="none" stroke="#333333" d="M134.49,-198.99C208.6,-204.94 352.13,-210.47 468.58,-179 487.93,-173.77 507.75,-164.01 524.17,-154.48"/>
<polygon fill="#333333" stroke="#333333" points="525.4,-156.6 530.16,-150.92 522.89,-152.39 525.4,-156.6"/>
</g>
<!-- feat -->
<g id="node5" class="node">
<title>feat</title>
<path fill="white" stroke="#222222" stroke-width="1.1" d="M448.58,-146.7C448.58,-146.7 388.04,-146.7 388.04,-146.7 382.04,-146.7 376.04,-140.7 376.04,-134.7 376.04,-134.7 376.04,-117.3 376.04,-117.3 376.04,-111.3 382.04,-105.3 388.04,-105.3 388.04,-105.3 448.58,-105.3 448.58,-105.3 454.58,-105.3 460.58,-111.3 460.58,-117.3 460.58,-117.3 460.58,-134.7 460.58,-134.7 460.58,-140.7 454.58,-146.7 448.58,-146.7"/>
<text xml:space="preserve" text-anchor="middle" x="418.31" y="-129.05" font-family="Helvetica,sans-Serif" font-size="11.00" fill="#111111">14&#45;band</text>
<text xml:space="preserve" text-anchor="middle" x="418.31" y="-115.55" font-family="Helvetica,sans-Serif" font-size="11.00" fill="#111111">feature stack</text>
</g>
<!-- mask&#45;&gt;feat -->
<g id="edge3" class="edge">
<title>mask&#45;&gt;feat</title>
<path fill="none" stroke="#333333" d="M322.46,-126C337.14,-126 353.02,-126 367.51,-126"/>
<polygon fill="#333333" stroke="#333333" points="367.35,-128.45 374.35,-126 367.35,-123.55 367.35,-128.45"/>
</g>
<!-- feat&#45;&gt;rf -->
<g id="edge4" class="edge">
<title>feat&#45;&gt;rf</title>
<path fill="none" stroke="#333333" d="M460.76,-126.87C474.84,-127.16 490.84,-127.5 505.91,-127.81"/>
<polygon fill="#333333" stroke="#333333" points="505.6,-130.26 512.65,-127.95 505.71,-125.36 505.6,-130.26"/>
</g>
<!-- seg -->
<g id="node7" class="node">
<title>seg</title>
<path fill="white" stroke="#222222" stroke-width="1.1" d="M767.66,-149.7C767.66,-149.7 678.62,-149.7 678.62,-149.7 672.62,-149.7 666.62,-143.7 666.62,-137.7 666.62,-137.7 666.62,-120.3 666.62,-120.3 666.62,-114.3 672.62,-108.3 678.62,-108.3 678.62,-108.3 767.66,-108.3 767.66,-108.3 773.66,-108.3 779.66,-114.3 779.66,-120.3 779.66,-120.3 779.66,-137.7 779.66,-137.7 779.66,-143.7 773.66,-149.7 767.66,-149.7"/>
<text xml:space="preserve" text-anchor="middle" x="723.14" y="-132.05" font-family="Helvetica,sans-Serif" font-size="11.00" fill="#111111">Seagrass map +</text>
<text xml:space="preserve" text-anchor="middle" x="723.14" y="-118.55" font-family="Helvetica,sans-Serif" font-size="11.00" fill="#111111">2019&#45;2024 change</text>
</g>
<!-- rf&#45;&gt;seg -->
<g id="edge5" class="edge">
<title>rf&#45;&gt;seg</title>
<path fill="none" stroke="#333333" d="M613.15,-129C627.34,-129 643.07,-129 658.06,-129"/>
<polygon fill="#333333" stroke="#333333" points="657.79,-131.45 664.79,-129 657.79,-126.55 657.79,-131.45"/>
</g>
<!-- val -->
<g id="node8" class="node">
<title>val</title>
<path fill="white" stroke="#222222" stroke-width="1.1" d="M951.95,-151.7C951.95,-151.7 845.66,-151.7 845.66,-151.7 839.66,-151.7 833.66,-145.7 833.66,-139.7 833.66,-139.7 833.66,-122.3 833.66,-122.3 833.66,-116.3 839.66,-110.3 845.66,-110.3 845.66,-110.3 951.95,-110.3 951.95,-110.3 957.95,-110.3 963.95,-116.3 963.95,-122.3 963.95,-122.3 963.95,-139.7 963.95,-139.7 963.95,-145.7 957.95,-151.7 951.95,-151.7"/>
<text xml:space="preserve" text-anchor="middle" x="898.8" y="-134.05" font-family="Helvetica,sans-Serif" font-size="11.00" fill="#111111">Value layer</text>
<text xml:space="preserve" text-anchor="middle" x="898.8" y="-120.55" font-family="Helvetica,sans-Serif" font-size="11.00" fill="#111111">(habitat x dugong use)</text>
</g>
<!-- seg&#45;&gt;val -->
<g id="edge6" class="edge">
<title>seg&#45;&gt;val</title>
<path fill="none" stroke="#333333" d="M780.04,-129.64C794.35,-129.81 809.95,-129.99 824.97,-130.16"/>
<polygon fill="#333333" stroke="#333333" points="824.7,-132.61 831.73,-130.24 824.76,-127.71 824.7,-132.61"/>
</g>
<!-- seg&#45;&gt;thr -->
<g id="edge7" class="edge">
<title>seg&#45;&gt;thr</title>
<path fill="none" stroke="#333333" d="M780.04,-109.36C796.47,-103.59 814.59,-97.23 831.59,-91.26"/>
<polygon fill="#333333" stroke="#333333" points="832.09,-93.68 837.89,-89.05 830.47,-89.05 832.09,-93.68"/>
</g>
<!-- risk -->
<g id="node10" class="node">
<title>risk</title>
<path fill="white" stroke="#222222" stroke-width="1.1" d="M1132.49,-86C1132.49,-86 1029.95,-86 1029.95,-86 1023.95,-86 1017.95,-80 1017.95,-74 1017.95,-74 1017.95,-62 1017.95,-62 1017.95,-56 1023.95,-50 1029.95,-50 1029.95,-50 1132.49,-50 1132.49,-50 1138.49,-50 1144.49,-56 1144.49,-62 1144.49,-62 1144.49,-74 1144.49,-74 1144.49,-80 1138.49,-86 1132.49,-86"/>
<text xml:space="preserve" text-anchor="middle" x="1081.22" y="-64.3" font-family="Helvetica,sans-Serif" font-size="11.00" fill="#111111">Risk = Value x Threat</text>
</g>
<!-- val&#45;&gt;risk -->
<g id="edge9" class="edge">
<title>val&#45;&gt;risk</title>
<path fill="none" stroke="#333333" d="M960.63,-109.76C979.52,-103.16 1000.34,-95.9 1019.23,-89.3"/>
<polygon fill="#333333" stroke="#333333" points="1019.97,-91.63 1025.77,-87.01 1018.36,-87.01 1019.97,-91.63"/>
</g>
<!-- thr&#45;&gt;risk -->
<g id="edge10" class="edge">
<title>thr&#45;&gt;risk</title>
<path fill="none" stroke="#333333" d="M958.38,-68C974.65,-68 992.49,-68 1009.38,-68"/>
<polygon fill="#333333" stroke="#333333" points="1009.07,-70.45 1016.07,-68 1009.07,-65.55 1009.07,-70.45"/>
</g>
<!-- hot -->
<g id="node11" class="node">
<title>hot</title>
<path fill="white" stroke="#222222" stroke-width="1.1" d="M1263.53,-88.7C1263.53,-88.7 1210.49,-88.7 1210.49,-88.7 1204.49,-88.7 1198.49,-82.7 1198.49,-76.7 1198.49,-76.7 1198.49,-59.3 1198.49,-59.3 1198.49,-53.3 1204.49,-47.3 1210.49,-47.3 1210.49,-47.3 1263.53,-47.3 1263.53,-47.3 1269.53,-47.3 1275.53,-53.3 1275.53,-59.3 1275.53,-59.3 1275.53,-76.7 1275.53,-76.7 1275.53,-82.7 1269.53,-88.7 1263.53,-88.7"/>
<text xml:space="preserve" text-anchor="middle" x="1237.01" y="-71.05" font-family="Helvetica,sans-Serif" font-size="11.00" fill="#111111">105 ranked</text>
<text xml:space="preserve" text-anchor="middle" x="1237.01" y="-57.55" font-family="Helvetica,sans-Serif" font-size="11.00" fill="#111111">hotspots</text>
</g>
<!-- risk&#45;&gt;hot -->
<g id="edge11" class="edge">
<title>risk&#45;&gt;hot</title>
<path fill="none" stroke="#333333" d="M1144.77,-68C1159.93,-68 1175.85,-68 1190.08,-68"/>
<polygon fill="#333333" stroke="#333333" points="1189.73,-70.45 1196.73,-68 1189.73,-65.55 1189.73,-70.45"/>
</g>
<!-- dash -->
<g id="node12" class="node">
<title>dash</title>
<path fill="white" stroke="#222222" stroke-width="1.1" d="M1391.57,-57.7C1391.57,-57.7 1341.53,-57.7 1341.53,-57.7 1335.53,-57.7 1329.53,-51.7 1329.53,-45.7 1329.53,-45.7 1329.53,-28.3 1329.53,-28.3 1329.53,-22.3 1335.53,-16.3 1341.53,-16.3 1341.53,-16.3 1391.57,-16.3 1391.57,-16.3 1397.57,-16.3 1403.57,-22.3 1403.57,-28.3 1403.57,-28.3 1403.57,-45.7 1403.57,-45.7 1403.57,-51.7 1397.57,-57.7 1391.57,-57.7"/>
<text xml:space="preserve" text-anchor="middle" x="1366.55" y="-40.05" font-family="Helvetica,sans-Serif" font-size="11.00" fill="#111111">Interactive</text>
<text xml:space="preserve" text-anchor="middle" x="1366.55" y="-26.55" font-family="Helvetica,sans-Serif" font-size="11.00" fill="#111111">dashboard</text>
</g>
<!-- hot&#45;&gt;dash -->
<g id="edge12" class="edge">
<title>hot&#45;&gt;dash</title>
<path fill="none" stroke="#333333" d="M1275.93,-58.78C1290.18,-55.32 1306.5,-51.35 1321.28,-47.76"/>
<polygon fill="#333333" stroke="#333333" points="1321.61,-50.2 1327.84,-46.17 1320.46,-45.44 1321.61,-50.2"/>
</g>
<!-- rep -->
<g id="node13" class="node">
<title>rep</title>
<path fill="white" stroke="#222222" stroke-width="1.1" d="M1387.44,-120.7C1387.44,-120.7 1345.65,-120.7 1345.65,-120.7 1339.65,-120.7 1333.65,-114.7 1333.65,-108.7 1333.65,-108.7 1333.65,-91.3 1333.65,-91.3 1333.65,-85.3 1339.65,-79.3 1345.65,-79.3 1345.65,-79.3 1387.44,-79.3 1387.44,-79.3 1393.44,-79.3 1399.44,-85.3 1399.44,-91.3 1399.44,-91.3 1399.44,-108.7 1399.44,-108.7 1399.44,-114.7 1393.44,-120.7 1387.44,-120.7"/>
<text xml:space="preserve" text-anchor="middle" x="1366.55" y="-103.05" font-family="Helvetica,sans-Serif" font-size="11.00" fill="#111111">Report +</text>
<text xml:space="preserve" text-anchor="middle" x="1366.55" y="-89.55" font-family="Helvetica,sans-Serif" font-size="11.00" fill="#111111">figures</text>
</g>
<!-- hot&#45;&gt;rep -->
<g id="edge13" class="edge">
<title>hot&#45;&gt;rep</title>
<path fill="none" stroke="#333333" d="M1275.93,-77.51C1291.44,-81.41 1309.4,-85.91 1325.15,-89.86"/>
<polygon fill="#333333" stroke="#333333" points="1324.31,-92.18 1331.7,-91.51 1325.5,-87.43 1324.31,-92.18"/>
</g>
</g>
</svg>
