<?xml version="1.0" encoding="UTF-8" standalone="no"?>
<!DOCTYPE svg PUBLIC "-//W3C//DTD SVG 1.1//EN"
 "http://www.w3.org/Graphics/SVG/1.1/DTD/svg11.dtd">
<!-- Generated by graphviz version 15.1.0 (20260618.0150)
 -->
<!-- Title: pipeline Pages: 1 -->
<svg width="330pt" height="405pt"
 viewBox="0.00 0.00 330.00 405.00" xmlns="http://www.w3.org/2000/svg" xmlns:xlink="http://www.w3.org/1999/xlink">
<g id="graph0" class="graph" transform="scale(1 1) rotate(0) translate(21.6 383.88)">
<title>pipeline</title>
<polygon fill="white" stroke="none" points="-21.6,21.6 -21.6,-383.88 307.93,-383.88 307.93,21.6 -21.6,21.6"/>
<text xml:space="preserve" text-anchor="middle" x="143.17" y="-344.03" font-family="Helvetica,sans-Serif" font-size="15.00" fill="#111111">Dugong Watch — Five&#45;Track Pipeline</text>
<!-- a -->
<g id="node1" class="node">
<title>a</title>
<path fill="white" stroke="#222222" stroke-width="1.1" d="M94.92,-336.28C94.92,-336.28 33,-336.28 33,-336.28 27,-336.28 21,-330.28 21,-324.28 21,-324.28 21,-304 21,-304 21,-298 27,-292 33,-292 33,-292 94.92,-292 94.92,-292 100.92,-292 106.92,-298 106.92,-304 106.92,-304 106.92,-324.28 106.92,-324.28 106.92,-330.28 100.92,-336.28 94.92,-336.28"/>
<text xml:space="preserve" text-anchor="middle" x="63.96" y="-317.19" font-family="Helvetica,sans-Serif" font-size="11.00" fill="#111111">A</text>
<text xml:space="preserve" text-anchor="middle" x="63.96" y="-303.69" font-family="Helvetica,sans-Serif" font-size="11.00" fill="#111111">Data &amp; GEE</text>
</g>
<!-- b -->
<g id="node2" class="node">
<title>b</title>
<path fill="white" stroke="#222222" stroke-width="1.1" d="M105.42,-263.28C105.42,-263.28 22.5,-263.28 22.5,-263.28 16.5,-263.28 10.5,-257.28 10.5,-251.28 10.5,-251.28 10.5,-231 10.5,-231 10.5,-225 16.5,-219 22.5,-219 22.5,-219 105.42,-219 105.42,-219 111.42,-219 117.42,-225 117.42,-231 117.42,-231 117.42,-251.28 117.42,-251.28 117.42,-257.28 111.42,-263.28 105.42,-263.28"/>
<text xml:space="preserve" text-anchor="middle" x="63.96" y="-244.19" font-family="Helvetica,sans-Serif" font-size="11.00" fill="#111111">B</text>
<text xml:space="preserve" text-anchor="middle" x="63.96" y="-230.69" font-family="Helvetica,sans-Serif" font-size="11.00" fill="#111111">ML Classification</text>
</g>
<!-- a&#45;&gt;b -->
<g id="edge1" class="edge">
<title>a&#45;&gt;b</title>
<path fill="none" stroke="#333333" stroke-width="1.2" d="M63.96,-291.66C63.96,-285.54 63.96,-279.42 63.96,-273.29"/>
<polygon fill="#333333" stroke="#333333" stroke-width="1.2" points="66.76,-273.48 63.96,-265.48 61.16,-273.48 66.76,-273.48"/>
</g>
<!-- oa -->
<g id="node6" class="node">
<title>oa</title>
<polygon fill="#f2f2f2" stroke="#9a9a9a" points="280.33,-332.14 170.92,-332.14 170.92,-296.14 286.33,-296.14 286.33,-326.14 280.33,-332.14"/>
<polyline fill="none" stroke="#9a9a9a" points="280.33,-332.14 280.33,-326.14"/>
<polyline fill="none" stroke="#9a9a9a" points="286.33,-326.14 280.33,-326.14"/>
<text xml:space="preserve" text-anchor="middle" x="228.63" y="-316.37" font-family="Helvetica,sans-Serif" font-size="9.50" fill="#444444">Cloud&#45;free composites</text>
<text xml:space="preserve" text-anchor="middle" x="228.63" y="-305.12" font-family="Helvetica,sans-Serif" font-size="9.50" fill="#444444">+ feature stack</text>
</g>
<!-- a&#45;&gt;oa -->
<g id="edge5" class="edge">
<title>a&#45;&gt;oa</title>
<path fill="none" stroke="#333333" stroke-width="1.2" stroke-dasharray="1,5" d="M107.27,-314.14C126.57,-314.14 149.71,-314.14 170.52,-314.14"/>
</g>
<!-- c -->
<g id="node3" class="node">
<title>c</title>
<path fill="white" stroke="#222222" stroke-width="1.1" d="M99.8,-190.28C99.8,-190.28 28.13,-190.28 28.13,-190.28 22.13,-190.28 16.13,-184.28 16.13,-178.28 16.13,-178.28 16.13,-158 16.13,-158 16.13,-152 22.13,-146 28.13,-146 28.13,-146 99.8,-146 99.8,-146 105.8,-146 111.8,-152 111.8,-158 111.8,-158 111.8,-178.28 111.8,-178.28 111.8,-184.28 105.8,-190.28 99.8,-190.28"/>
<text xml:space="preserve" text-anchor="middle" x="63.96" y="-171.19" font-family="Helvetica,sans-Serif" font-size="11.00" fill="#111111">C</text>
<text xml:space="preserve" text-anchor="middle" x="63.96" y="-157.69" font-family="Helvetica,sans-Serif" font-size="11.00" fill="#111111">Risk Modelling</text>
</g>
<!-- b&#45;&gt;c -->
<g id="edge2" class="edge">
<title>b&#45;&gt;c</title>
<path fill="none" stroke="#333333" stroke-width="1.2" d="M63.96,-218.66C63.96,-212.54 63.96,-206.42 63.96,-200.29"/>
<polygon fill="#333333" stroke="#333333" stroke-width="1.2" points="66.76,-200.48 63.96,-192.48 61.16,-200.48 66.76,-200.48"/>
</g>
<!-- ob -->
<g id="node7" class="node">
<title>ob</title>
<polygon fill="#f2f2f2" stroke="#9a9a9a" points="279.58,-259.14 171.67,-259.14 171.67,-223.14 285.58,-223.14 285.58,-253.14 279.58,-259.14"/>
<polyline fill="none" stroke="#9a9a9a" points="279.58,-259.14 279.58,-253.14"/>
<polyline fill="none" stroke="#9a9a9a" points="285.58,-253.14 279.58,-253.14"/>
<text xml:space="preserve" text-anchor="middle" x="228.63" y="-243.36" font-family="Helvetica,sans-Serif" font-size="9.50" fill="#444444">Seagrass map, 85.3%</text>
<text xml:space="preserve" text-anchor="middle" x="228.63" y="-232.11" font-family="Helvetica,sans-Serif" font-size="9.50" fill="#444444">+ 2019&#45;2024 change</text>
</g>
<!-- b&#45;&gt;ob -->
<g id="edge6" class="edge">
<title>b&#45;&gt;ob</title>
<path fill="none" stroke="#333333" stroke-width="1.2" stroke-dasharray="1,5" d="M117.77,-241.14C134.93,-241.14 154.04,-241.14 171.44,-241.14"/>
</g>
<!-- d -->
<g id="node4" class="node">
<title>d</title>
<path fill="white" stroke="#222222" stroke-width="1.1" d="M91.55,-117.28C91.55,-117.28 36.38,-117.28 36.38,-117.28 30.38,-117.28 24.38,-111.28 24.38,-105.28 24.38,-105.28 24.38,-85 24.38,-85 24.38,-79 30.38,-73 36.38,-73 36.38,-73 91.55,-73 91.55,-73 97.55,-73 103.55,-79 103.55,-85 103.55,-85 103.55,-105.28 103.55,-105.28 103.55,-111.28 97.55,-117.28 91.55,-117.28"/>
<text xml:space="preserve" text-anchor="middle" x="63.96" y="-98.19" font-family="Helvetica,sans-Serif" font-size="11.00" fill="#111111">D</text>
<text xml:space="preserve" text-anchor="middle" x="63.96" y="-84.69" font-family="Helvetica,sans-Serif" font-size="11.00" fill="#111111">Dashboard</text>
</g>
<!-- c&#45;&gt;d -->
<g id="edge3" class="edge">
<title>c&#45;&gt;d</title>
<path fill="none" stroke="#333333" stroke-width="1.2" d="M63.96,-145.66C63.96,-139.54 63.96,-133.42 63.96,-127.29"/>
<polygon fill="#333333" stroke="#333333" stroke-width="1.2" points="66.76,-127.48 63.96,-119.48 61.16,-127.48 66.76,-127.48"/>
</g>
<!-- oc -->
<g id="node8" class="node">
<title>oc</title>
<polygon fill="#f2f2f2" stroke="#9a9a9a" points="276.96,-186.14 174.3,-186.14 174.3,-150.14 282.96,-150.14 282.96,-180.14 276.96,-186.14"/>
<polyline fill="none" stroke="#9a9a9a" points="276.96,-186.14 276.96,-180.14"/>
<polyline fill="none" stroke="#9a9a9a" points="282.96,-180.14 276.96,-180.14"/>
<text xml:space="preserve" text-anchor="middle" x="228.63" y="-170.36" font-family="Helvetica,sans-Serif" font-size="9.50" fill="#444444">Risk index, 5 classes</text>
<text xml:space="preserve" text-anchor="middle" x="228.63" y="-159.11" font-family="Helvetica,sans-Serif" font-size="9.50" fill="#444444">+ 105 hotspots</text>
</g>
<!-- c&#45;&gt;oc -->
<g id="edge7" class="edge">
<title>c&#45;&gt;oc</title>
<path fill="none" stroke="#333333" stroke-width="1.2" stroke-dasharray="1,5" d="M112.01,-168.14C131.34,-168.14 153.83,-168.14 173.81,-168.14"/>
</g>
<!-- e -->
<g id="node5" class="node">
<title>e</title>
<path fill="white" stroke="#222222" stroke-width="1.1" d="M115.92,-44.28C115.92,-44.28 12,-44.28 12,-44.28 6,-44.28 0,-38.28 0,-32.28 0,-32.28 0,-12 0,-12 0,-6 6,0 12,0 12,0 115.92,0 115.92,0 121.92,0 127.92,-6 127.92,-12 127.92,-12 127.92,-32.28 127.92,-32.28 127.92,-38.28 121.92,-44.28 115.92,-44.28"/>
<text xml:space="preserve" text-anchor="middle" x="63.96" y="-25.19" font-family="Helvetica,sans-Serif" font-size="11.00" fill="#111111">E</text>
<text xml:space="preserve" text-anchor="middle" x="63.96" y="-11.69" font-family="Helvetica,sans-Serif" font-size="11.00" fill="#111111">Report &amp; Submission</text>
</g>
<!-- d&#45;&gt;e -->
<g id="edge4" class="edge">
<title>d&#45;&gt;e</title>
<path fill="none" stroke="#333333" stroke-width="1.2" d="M63.96,-72.66C63.96,-66.54 63.96,-60.42 63.96,-54.29"/>
<polygon fill="#333333" stroke="#333333" stroke-width="1.2" points="66.76,-54.48 63.96,-46.48 61.16,-54.48 66.76,-54.48"/>
</g>
<!-- od -->
<g id="node9" class="node">
<title>od</title>
<polygon fill="#f2f2f2" stroke="#9a9a9a" points="274.33,-113.14 176.92,-113.14 176.92,-77.14 280.33,-77.14 280.33,-107.14 274.33,-113.14"/>
<polyline fill="none" stroke="#9a9a9a" points="274.33,-113.14 274.33,-107.14"/>
<polyline fill="none" stroke="#9a9a9a" points="280.33,-107.14 274.33,-107.14"/>
<text xml:space="preserve" text-anchor="middle" x="228.63" y="-97.36" font-family="Helvetica,sans-Serif" font-size="9.50" fill="#444444">Interactive risk map</text>
<text xml:space="preserve" text-anchor="middle" x="228.63" y="-86.11" font-family="Helvetica,sans-Serif" font-size="9.50" fill="#444444">+ static figures</text>
</g>
<!-- d&#45;&gt;od -->
<g id="edge8" class="edge">
<title>d&#45;&gt;od</title>
<path fill="none" stroke="#333333" stroke-width="1.2" stroke-dasharray="1,5" d="M103.92,-95.14C125.73,-95.14 153.17,-95.14 176.67,-95.14"/>
</g>
<!-- oe -->
<g id="node10" class="node">
<title>oe</title>
<polygon fill="#f2f2f2" stroke="#9a9a9a" points="276.58,-40.14 174.67,-40.14 174.67,-4.14 282.58,-4.14 282.58,-34.14 276.58,-40.14"/>
<polyline fill="none" stroke="#9a9a9a" points="276.58,-40.14 276.58,-34.14"/>
<polyline fill="none" stroke="#9a9a9a" points="282.58,-34.14 276.58,-34.14"/>
<text xml:space="preserve" text-anchor="middle" x="228.63" y="-24.37" font-family="Helvetica,sans-Serif" font-size="9.50" fill="#444444">Comprehensive PDF</text>
<text xml:space="preserve" text-anchor="middle" x="228.63" y="-13.12" font-family="Helvetica,sans-Serif" font-size="9.50" fill="#444444">+ presentation</text>
</g>
<!-- e&#45;&gt;oe -->
<g id="edge9" class="edge">
<title>e&#45;&gt;oe</title>
<path fill="none" stroke="#333333" stroke-width="1.2" stroke-dasharray="1,5" d="M128.32,-22.14C143.48,-22.14 159.52,-22.14 174.19,-22.14"/>
</g>
</g>
</svg>
