<?xml version="1.0" encoding="UTF-8" standalone="no"?>
<!DOCTYPE svg PUBLIC "-//W3C//DTD SVG 1.1//EN"
 "http://www.w3.org/Graphics/SVG/1.1/DTD/svg11.dtd">
<!-- Generated by graphviz version 15.1.0 (20260618.0150)
 -->
<!-- Title: classification Pages: 1 -->
<svg width="388pt" height="608pt"
 viewBox="0.00 0.00 388.00 608.00" xmlns="http://www.w3.org/2000/svg" xmlns:xlink="http://www.w3.org/1999/xlink">
<g id="graph0" class="graph" transform="scale(1 1) rotate(0) translate(21.6 586.6)">
<title>classification</title>
<polygon fill="white" stroke="none" points="-21.6,21.6 -21.6,-586.6 366.76,-586.6 366.76,21.6 -21.6,21.6"/>
<text xml:space="preserve" text-anchor="middle" x="172.58" y="-546.75" font-family="Helvetica,sans-Serif" font-size="15.00" fill="#111111">Track B — Seagrass Classification Workflow</text>
<!-- s2 -->
<g id="node1" class="node">
<title>s2</title>
<path fill="white" stroke="#222222" stroke-width="1.1" d="M197.79,-539C197.79,-539 20.25,-539 20.25,-539 14.25,-539 8.25,-533 8.25,-527 8.25,-527 8.25,-515 8.25,-515 8.25,-509 14.25,-503 20.25,-503 20.25,-503 197.79,-503 197.79,-503 203.79,-503 209.79,-509 209.79,-515 209.79,-515 209.79,-527 209.79,-527 209.79,-533 203.79,-539 197.79,-539"/>
<text xml:space="preserve" text-anchor="middle" x="109.02" y="-517.3" font-family="Helvetica,sans-Serif" font-size="11.00" fill="#111111">Sentinel&#45;2 image collection (per year)</text>
</g>
<!-- mask -->
<g id="node2" class="node">
<title>mask</title>
<path fill="white" stroke="#222222" stroke-width="1.1" d="M206.04,-471C206.04,-471 12,-471 12,-471 6,-471 0,-465 0,-459 0,-459 0,-447 0,-447 0,-441 6,-435 12,-435 12,-435 206.04,-435 206.04,-435 212.04,-435 218.04,-441 218.04,-447 218.04,-447 218.04,-459 218.04,-459 218.04,-465 212.04,-471 206.04,-471"/>
<text xml:space="preserve" text-anchor="middle" x="109.02" y="-449.3" font-family="Helvetica,sans-Serif" font-size="11.00" fill="#111111">Cloud mask (QA60) + median composite</text>
</g>
<!-- s2&#45;&gt;mask -->
<g id="edge1" class="edge">
<title>s2&#45;&gt;mask</title>
<path fill="none" stroke="#333333" d="M109.02,-502.66C109.02,-495.59 109.02,-487.28 109.02,-479.54"/>
<polygon fill="#333333" stroke="#333333" points="111.47,-479.97 109.02,-472.97 106.57,-479.97 111.47,-479.97"/>
</g>
<!-- idx -->
<g id="node3" class="node">
<title>idx</title>
<path fill="white" stroke="#222222" stroke-width="1.1" d="M180.17,-403C180.17,-403 37.88,-403 37.88,-403 31.88,-403 25.88,-397 25.88,-391 25.88,-391 25.88,-373.6 25.88,-373.6 25.88,-367.6 31.88,-361.6 37.88,-361.6 37.88,-361.6 180.17,-361.6 180.17,-361.6 186.17,-361.6 192.17,-367.6 192.17,-373.6 192.17,-373.6 192.17,-391 192.17,-391 192.17,-397 186.17,-403 180.17,-403"/>
<text xml:space="preserve" text-anchor="middle" x="109.02" y="-385.35" font-family="Helvetica,sans-Serif" font-size="11.00" fill="#111111">Spectral indices</text>
<text xml:space="preserve" text-anchor="middle" x="109.02" y="-371.85" font-family="Helvetica,sans-Serif" font-size="11.00" fill="#111111">NDVI · NDWI · MNDWI · BSI</text>
</g>
<!-- mask&#45;&gt;idx -->
<g id="edge2" class="edge">
<title>mask&#45;&gt;idx</title>
<path fill="none" stroke="#333333" d="M109.02,-434.66C109.02,-427.73 109.02,-419.56 109.02,-411.81"/>
<polygon fill="#333333" stroke="#333333" points="111.47,-411.82 109.02,-404.82 106.57,-411.82 111.47,-411.82"/>
</g>
<!-- stack -->
<g id="node4" class="node">
<title>stack</title>
<path fill="#e9e9e9" stroke="#222222" stroke-width="1.1" d="M172.29,-329.6C172.29,-329.6 45.75,-329.6 45.75,-329.6 39.75,-329.6 33.75,-323.6 33.75,-317.6 33.75,-317.6 33.75,-300.2 33.75,-300.2 33.75,-294.2 39.75,-288.2 45.75,-288.2 45.75,-288.2 172.29,-288.2 172.29,-288.2 178.29,-288.2 184.29,-294.2 184.29,-300.2 184.29,-300.2 184.29,-317.6 184.29,-317.6 184.29,-323.6 178.29,-329.6 172.29,-329.6"/>
<text xml:space="preserve" text-anchor="middle" x="109.02" y="-311.95" font-family="Helvetica,sans-Serif" font-size="11.00" fill="#111111">14&#45;band feature stack</text>
<text xml:space="preserve" text-anchor="middle" x="109.02" y="-298.45" font-family="Helvetica,sans-Serif" font-size="11.00" fill="#111111">(10 raw bands + 4 indices)</text>
</g>
<!-- idx&#45;&gt;stack -->
<g id="edge3" class="edge">
<title>idx&#45;&gt;stack</title>
<path fill="none" stroke="#333333" d="M109.02,-361.41C109.02,-354.22 109.02,-345.95 109.02,-338.17"/>
<polygon fill="#333333" stroke="#333333" points="111.47,-338.2 109.02,-331.2 106.57,-338.2 111.47,-338.2"/>
</g>
<!-- samp -->
<g id="node6" class="node">
<title>samp</title>
<path fill="white" stroke="#222222" stroke-width="1.1" d="M254.42,-256.2C254.42,-256.2 131.62,-256.2 131.62,-256.2 125.62,-256.2 119.63,-250.2 119.63,-244.2 119.63,-244.2 119.63,-226.8 119.63,-226.8 119.63,-220.8 125.63,-214.8 131.62,-214.8 131.62,-214.8 254.42,-214.8 254.42,-214.8 260.42,-214.8 266.42,-220.8 266.42,-226.8 266.42,-226.8 266.42,-244.2 266.42,-244.2 266.42,-250.2 260.42,-256.2 254.42,-256.2"/>
<text xml:space="preserve" text-anchor="middle" x="193.02" y="-238.55" font-family="Helvetica,sans-Serif" font-size="11.00" fill="#111111">Stratified training samples</text>
<text xml:space="preserve" text-anchor="middle" x="193.02" y="-225.05" font-family="Helvetica,sans-Serif" font-size="11.00" fill="#111111">(80 / 20 train&#45;test split)</text>
</g>
<!-- stack&#45;&gt;samp -->
<g id="edge5" class="edge">
<title>stack&#45;&gt;samp</title>
<path fill="none" stroke="#333333" d="M132.42,-288.01C141.9,-279.96 152.96,-270.55 163.02,-262"/>
<polygon fill="#333333" stroke="#333333" points="164.56,-263.91 168.3,-257.51 161.38,-260.18 164.56,-263.91"/>
</g>
<!-- ead -->
<g id="node5" class="node">
<title>ead</title>
<polygon fill="#f2f2f2" stroke="#9a9a9a" stroke-width="1.1" points="339.16,-328.1 208.88,-328.1 208.88,-289.7 345.16,-289.7 345.16,-322.1 339.16,-328.1"/>
<polyline fill="none" stroke="#9a9a9a" stroke-width="1.1" points="339.16,-328.1 339.16,-322.1"/>
<polyline fill="none" stroke="#9a9a9a" stroke-width="1.1" points="345.16,-322.1 339.16,-322.1"/>
<text xml:space="preserve" text-anchor="middle" x="277.02" y="-311.4" font-family="Helvetica,sans-Serif" font-size="10.00" fill="#444444">EAD training polygons</text>
<text xml:space="preserve" text-anchor="middle" x="277.02" y="-299.4" font-family="Helvetica,sans-Serif" font-size="10.00" fill="#444444">(seagrass / non&#45;seagrass)</text>
</g>
<!-- ead&#45;&gt;samp -->
<g id="edge4" class="edge">
<title>ead&#45;&gt;samp</title>
<path fill="none" stroke="#333333" d="M255.39,-289.51C245.57,-281.16 233.78,-271.15 223.12,-262.08"/>
<polygon fill="#333333" stroke="#333333" points="224.72,-260.23 217.8,-257.56 221.55,-263.96 224.72,-260.23"/>
</g>
<!-- rf -->
<g id="node7" class="node">
<title>rf</title>
<path fill="#e9e9e9" stroke="#222222" stroke-width="1.1" d="M245.79,-182.8C245.79,-182.8 140.25,-182.8 140.25,-182.8 134.25,-182.8 128.25,-176.8 128.25,-170.8 128.25,-170.8 128.25,-153.4 128.25,-153.4 128.25,-147.4 134.25,-141.4 140.25,-141.4 140.25,-141.4 245.79,-141.4 245.79,-141.4 251.79,-141.4 257.79,-147.4 257.79,-153.4 257.79,-153.4 257.79,-170.8 257.79,-170.8 257.79,-176.8 251.79,-182.8 245.79,-182.8"/>
<text xml:space="preserve" text-anchor="middle" x="193.02" y="-165.15" font-family="Helvetica,sans-Serif" font-size="11.00" fill="#111111">Random Forest</text>
<text xml:space="preserve" text-anchor="middle" x="193.02" y="-151.65" font-family="Helvetica,sans-Serif" font-size="11.00" fill="#111111">(100 trees, seed = 42)</text>
</g>
<!-- samp&#45;&gt;rf -->
<g id="edge6" class="edge">
<title>samp&#45;&gt;rf</title>
<path fill="none" stroke="#333333" d="M193.02,-214.61C193.02,-207.42 193.02,-199.15 193.02,-191.37"/>
<polygon fill="#333333" stroke="#333333" points="195.47,-191.4 193.02,-184.4 190.57,-191.4 195.47,-191.4"/>
</g>
<!-- cls -->
<g id="node8" class="node">
<title>cls</title>
<path fill="white" stroke="#222222" stroke-width="1.1" d="M264.17,-109.4C264.17,-109.4 121.88,-109.4 121.88,-109.4 115.88,-109.4 109.88,-103.4 109.88,-97.4 109.88,-97.4 109.88,-85.4 109.88,-85.4 109.88,-79.4 115.88,-73.4 121.88,-73.4 121.88,-73.4 264.17,-73.4 264.17,-73.4 270.17,-73.4 276.17,-79.4 276.17,-85.4 276.17,-85.4 276.17,-97.4 276.17,-97.4 276.17,-103.4 270.17,-109.4 264.17,-109.4"/>
<text xml:space="preserve" text-anchor="middle" x="193.02" y="-87.7" font-family="Helvetica,sans-Serif" font-size="11.00" fill="#111111">Seagrass classification (2024)</text>
</g>
<!-- rf&#45;&gt;cls -->
<g id="edge7" class="edge">
<title>rf&#45;&gt;cls</title>
<path fill="none" stroke="#333333" d="M193.02,-140.86C193.02,-133.8 193.02,-125.79 193.02,-118.34"/>
<polygon fill="#333333" stroke="#333333" points="195.47,-118.45 193.02,-111.45 190.57,-118.45 195.47,-118.45"/>
</g>
<!-- acc -->
<g id="node9" class="node">
<title>acc</title>
<path fill="#2b2b2b" stroke="#2b2b2b" stroke-width="1.1" d="M244.67,-41.4C244.67,-41.4 141.38,-41.4 141.38,-41.4 135.38,-41.4 129.38,-35.4 129.38,-29.4 129.38,-29.4 129.38,-12 129.38,-12 129.38,-6 135.38,0 141.38,0 141.38,0 244.67,0 244.67,0 250.67,0 256.67,-6 256.67,-12 256.67,-12 256.67,-29.4 256.67,-29.4 256.67,-35.4 250.67,-41.4 244.67,-41.4"/>
<text xml:space="preserve" text-anchor="middle" x="193.02" y="-23.75" font-family="Helvetica,sans-Serif" font-size="11.00" fill="white">Accuracy assessment</text>
<text xml:space="preserve" text-anchor="middle" x="193.02" y="-10.25" font-family="Helvetica,sans-Serif" font-size="11.00" fill="white">85.3% &#160;· &#160;kappa 0.70</text>
</g>
<!-- cls&#45;&gt;acc -->
<g id="edge8" class="edge">
<title>cls&#45;&gt;acc</title>
<path fill="none" stroke="#333333" d="M193.02,-73.06C193.02,-66.13 193.02,-57.96 193.02,-50.21"/>
<polygon fill="#333333" stroke="#333333" points="195.47,-50.22 193.02,-43.22 190.57,-50.22 195.47,-50.22"/>
</g>
</g>
</svg>
