<?xml version="1.0" encoding="UTF-8" standalone="no"?>
<!DOCTYPE svg PUBLIC "-//W3C//DTD SVG 1.1//EN"
 "http://www.w3.org/Graphics/SVG/1.1/DTD/svg11.dtd">
<!-- Generated by graphviz version 15.1.0 (20260618.0150)
 -->
<!-- Title: change_detection Pages: 1 -->
<svg width="892pt" height="351pt"
 viewBox="0.00 0.00 892.00 351.00" xmlns="http://www.w3.org/2000/svg" xmlns:xlink="http://www.w3.org/1999/xlink">
<g id="graph0" class="graph" transform="scale(1 1) rotate(0) translate(21.6 329.6)">
<title>change_detection</title>
<polygon fill="white" stroke="none" points="-21.6,21.6 -21.6,-329.6 870.05,-329.6 870.05,21.6 -21.6,21.6"/>
<text xml:space="preserve" text-anchor="middle" x="424.22" y="-289.75" font-family="Helvetica,sans-Serif" font-size="15.00" fill="#111111">Track B — Change Detection (2019 vs 2024)</text>
<g id="clust1" class="cluster">
<title>cluster_out</title>
<path fill="white" stroke="#9a9a9a" d="M567.41,-8C567.41,-8 664.41,-8 664.41,-8 670.41,-8 676.41,-14 676.41,-20 676.41,-20 676.41,-262 676.41,-262 676.41,-268 670.41,-274 664.41,-274 664.41,-274 567.41,-274 567.41,-274 561.41,-274 555.41,-268 555.41,-262 555.41,-262 555.41,-20 555.41,-20 555.41,-14 561.41,-8 567.41,-8"/>
<text xml:space="preserve" text-anchor="middle" x="615.91" y="-260.5" font-family="Helvetica,sans-Serif" font-size="10.00" fill="#555555"> &#160;CHANGE CLASSES &#160;</text>
</g>
<!-- c19 -->
<g id="node1" class="node">
<title>c19</title>
<path fill="white" stroke="#222222" stroke-width="1.1" d="M72.54,-188.7C72.54,-188.7 12,-188.7 12,-188.7 6,-188.7 0,-182.7 0,-176.7 0,-176.7 0,-159.3 0,-159.3 0,-153.3 6,-147.3 12,-147.3 12,-147.3 72.54,-147.3 72.54,-147.3 78.54,-147.3 84.54,-153.3 84.54,-159.3 84.54,-159.3 84.54,-176.7 84.54,-176.7 84.54,-182.7 78.54,-188.7 72.54,-188.7"/>
<text xml:space="preserve" text-anchor="middle" x="42.27" y="-171.05" font-family="Helvetica,sans-Serif" font-size="11.00" fill="#111111">2019</text>
<text xml:space="preserve" text-anchor="middle" x="42.27" y="-157.55" font-family="Helvetica,sans-Serif" font-size="11.00" fill="#111111">feature stack</text>
</g>
<!-- rf -->
<g id="node3" class="node">
<title>rf</title>
<path fill="#e9e9e9" stroke="#222222" stroke-width="1.1" d="M245.08,-155.7C245.08,-155.7 139.54,-155.7 139.54,-155.7 133.54,-155.7 127.54,-149.7 127.54,-143.7 127.54,-143.7 127.54,-126.3 127.54,-126.3 127.54,-120.3 133.54,-114.3 139.54,-114.3 139.54,-114.3 245.08,-114.3 245.08,-114.3 251.08,-114.3 257.08,-120.3 257.08,-126.3 257.08,-126.3 257.08,-143.7 257.08,-143.7 257.08,-149.7 251.08,-155.7 245.08,-155.7"/>
<text xml:space="preserve" text-anchor="middle" x="192.31" y="-138.05" font-family="Helvetica,sans-Serif" font-size="11.00" fill="#111111">Same Random Forest</text>
<text xml:space="preserve" text-anchor="middle" x="192.31" y="-124.55" font-family="Helvetica,sans-Serif" font-size="11.00" fill="#111111">classifier</text>
</g>
<!-- c19&#45;&gt;rf -->
<g id="edge1" class="edge">
<title>c19&#45;&gt;rf</title>
<path fill="none" stroke="#333333" d="M84.9,-158.72C95.53,-156.35 107.27,-153.73 118.96,-151.13"/>
<polygon fill="#333333" stroke="#333333" points="119.25,-153.57 125.55,-149.66 118.18,-148.79 119.25,-153.57"/>
</g>
<!-- c24 -->
<g id="node2" class="node">
<title>c24</title>
<path fill="white" stroke="#222222" stroke-width="1.1" d="M72.54,-122.7C72.54,-122.7 12,-122.7 12,-122.7 6,-122.7 0,-116.7 0,-110.7 0,-110.7 0,-93.3 0,-93.3 0,-87.3 6,-81.3 12,-81.3 12,-81.3 72.54,-81.3 72.54,-81.3 78.54,-81.3 84.54,-87.3 84.54,-93.3 84.54,-93.3 84.54,-110.7 84.54,-110.7 84.54,-116.7 78.54,-122.7 72.54,-122.7"/>
<text xml:space="preserve" text-anchor="middle" x="42.27" y="-105.05" font-family="Helvetica,sans-Serif" font-size="11.00" fill="#111111">2024</text>
<text xml:space="preserve" text-anchor="middle" x="42.27" y="-91.55" font-family="Helvetica,sans-Serif" font-size="11.00" fill="#111111">feature stack</text>
</g>
<!-- c24&#45;&gt;rf -->
<g id="edge2" class="edge">
<title>c24&#45;&gt;rf</title>
<path fill="none" stroke="#333333" d="M84.9,-111.28C95.53,-113.65 107.27,-116.27 118.96,-118.87"/>
<polygon fill="#333333" stroke="#333333" points="118.18,-121.21 125.55,-120.34 119.25,-116.43 118.18,-121.21"/>
</g>
<!-- m19 -->
<g id="node4" class="node">
<title>m19</title>
<path fill="white" stroke="#222222" stroke-width="1.1" d="M378.62,-188.7C378.62,-188.7 312.08,-188.7 312.08,-188.7 306.08,-188.7 300.08,-182.7 300.08,-176.7 300.08,-176.7 300.08,-159.3 300.08,-159.3 300.08,-153.3 306.08,-147.3 312.08,-147.3 312.08,-147.3 378.62,-147.3 378.62,-147.3 384.62,-147.3 390.62,-153.3 390.62,-159.3 390.62,-159.3 390.62,-176.7 390.62,-176.7 390.62,-182.7 384.62,-188.7 378.62,-188.7"/>
<text xml:space="preserve" text-anchor="middle" x="345.35" y="-171.05" font-family="Helvetica,sans-Serif" font-size="11.00" fill="#111111">2019</text>
<text xml:space="preserve" text-anchor="middle" x="345.35" y="-157.55" font-family="Helvetica,sans-Serif" font-size="11.00" fill="#111111">seagrass map</text>
</g>
<!-- rf&#45;&gt;m19 -->
<g id="edge3" class="edge">
<title>rf&#45;&gt;m19</title>
<path fill="none" stroke="#333333" d="M257.36,-148.99C268.77,-151.49 280.53,-154.06 291.58,-156.47"/>
<polygon fill="#333333" stroke="#333333" points="291.03,-158.86 298.39,-157.96 292.07,-154.07 291.03,-158.86"/>
</g>
<!-- m24 -->
<g id="node5" class="node">
<title>m24</title>
<path fill="white" stroke="#222222" stroke-width="1.1" d="M378.62,-122.7C378.62,-122.7 312.08,-122.7 312.08,-122.7 306.08,-122.7 300.08,-116.7 300.08,-110.7 300.08,-110.7 300.08,-93.3 300.08,-93.3 300.08,-87.3 306.08,-81.3 312.08,-81.3 312.08,-81.3 378.62,-81.3 378.62,-81.3 384.62,-81.3 390.62,-87.3 390.62,-93.3 390.62,-93.3 390.62,-110.7 390.62,-110.7 390.62,-116.7 384.62,-122.7 378.62,-122.7"/>
<text xml:space="preserve" text-anchor="middle" x="345.35" y="-105.05" font-family="Helvetica,sans-Serif" font-size="11.00" fill="#111111">2024</text>
<text xml:space="preserve" text-anchor="middle" x="345.35" y="-91.55" font-family="Helvetica,sans-Serif" font-size="11.00" fill="#111111">seagrass map</text>
</g>
<!-- rf&#45;&gt;m24 -->
<g id="edge4" class="edge">
<title>rf&#45;&gt;m24</title>
<path fill="none" stroke="#333333" d="M257.36,-121.01C268.77,-118.51 280.53,-115.94 291.58,-113.53"/>
<polygon fill="#333333" stroke="#333333" points="292.07,-115.93 298.39,-112.04 291.03,-111.14 292.07,-115.93"/>
</g>
<!-- diff -->
<g id="node6" class="node">
<title>diff</title>
<path fill="white" stroke="#222222" stroke-width="1.1" d="M508.41,-155.7C508.41,-155.7 445.62,-155.7 445.62,-155.7 439.62,-155.7 433.62,-149.7 433.62,-143.7 433.62,-143.7 433.62,-126.3 433.62,-126.3 433.62,-120.3 439.62,-114.3 445.62,-114.3 445.62,-114.3 508.41,-114.3 508.41,-114.3 514.41,-114.3 520.41,-120.3 520.41,-126.3 520.41,-126.3 520.41,-143.7 520.41,-143.7 520.41,-149.7 514.41,-155.7 508.41,-155.7"/>
<text xml:space="preserve" text-anchor="middle" x="477.01" y="-138.05" font-family="Helvetica,sans-Serif" font-size="11.00" fill="#111111">Pixel&#45;by&#45;pixel</text>
<text xml:space="preserve" text-anchor="middle" x="477.01" y="-124.55" font-family="Helvetica,sans-Serif" font-size="11.00" fill="#111111">difference</text>
</g>
<!-- m19&#45;&gt;diff -->
<g id="edge5" class="edge">
<title>m19&#45;&gt;diff</title>
<path fill="none" stroke="#333333" d="M390.97,-156.64C402.06,-153.82 414.01,-150.78 425.36,-147.89"/>
<polygon fill="#333333" stroke="#333333" points="425.85,-150.3 432.03,-146.19 424.64,-145.55 425.85,-150.3"/>
</g>
<!-- m24&#45;&gt;diff -->
<g id="edge6" class="edge">
<title>m24&#45;&gt;diff</title>
<path fill="none" stroke="#333333" d="M390.97,-113.36C402.06,-116.18 414.01,-119.22 425.36,-122.11"/>
<polygon fill="#333333" stroke="#333333" points="424.64,-124.45 432.03,-123.81 425.85,-119.7 424.64,-124.45"/>
</g>
<!-- k0 -->
<g id="node7" class="node">
<title>k0</title>
<path fill="white" stroke="#222222" stroke-width="1.1" d="M647.55,-57.7C647.55,-57.7 583.26,-57.7 583.26,-57.7 577.26,-57.7 571.26,-51.7 571.26,-45.7 571.26,-45.7 571.26,-28.3 571.26,-28.3 571.26,-22.3 577.26,-16.3 583.26,-16.3 583.26,-16.3 647.55,-16.3 647.55,-16.3 653.55,-16.3 659.55,-22.3 659.55,-28.3 659.55,-28.3 659.55,-45.7 659.55,-45.7 659.55,-51.7 653.55,-57.7 647.55,-57.7"/>
<text xml:space="preserve" text-anchor="middle" x="615.41" y="-40.05" font-family="Helvetica,sans-Serif" font-size="11.00" fill="#111111">Stable</text>
<text xml:space="preserve" text-anchor="middle" x="615.41" y="-26.55" font-family="Helvetica,sans-Serif" font-size="11.00" fill="#111111">non&#45;seagrass</text>
</g>
<!-- diff&#45;&gt;k0 -->
<g id="edge7" class="edge">
<title>diff&#45;&gt;k0</title>
<path fill="none" stroke="#333333" d="M500.81,-113.89C515.76,-100.54 536.06,-83.36 555.41,-70 559.09,-67.46 562.99,-64.94 566.95,-62.5"/>
<polygon fill="#333333" stroke="#333333" points="568.08,-64.68 572.82,-58.97 565.56,-60.47 568.08,-64.68"/>
</g>
<!-- k1 -->
<g id="node8" class="node">
<title>k1</title>
<path fill="white" stroke="#222222" stroke-width="1.1" d="M636.68,-123.7C636.68,-123.7 594.14,-123.7 594.14,-123.7 588.14,-123.7 582.14,-117.7 582.14,-111.7 582.14,-111.7 582.14,-94.3 582.14,-94.3 582.14,-88.3 588.14,-82.3 594.14,-82.3 594.14,-82.3 636.68,-82.3 636.68,-82.3 642.68,-82.3 648.68,-88.3 648.68,-94.3 648.68,-94.3 648.68,-111.7 648.68,-111.7 648.68,-117.7 642.68,-123.7 636.68,-123.7"/>
<text xml:space="preserve" text-anchor="middle" x="615.41" y="-106.05" font-family="Helvetica,sans-Serif" font-size="11.00" fill="#111111">Stable</text>
<text xml:space="preserve" text-anchor="middle" x="615.41" y="-92.55" font-family="Helvetica,sans-Serif" font-size="11.00" fill="#111111">seagrass</text>
</g>
<!-- diff&#45;&gt;k1 -->
<g id="edge8" class="edge">
<title>diff&#45;&gt;k1</title>
<path fill="none" stroke="#333333" d="M520.8,-124.96C537.72,-120.99 557.07,-116.45 573.77,-112.53"/>
<polygon fill="#333333" stroke="#333333" points="574.01,-115 580.26,-111.01 572.89,-110.22 574.01,-115"/>
</g>
<!-- k2 -->
<g id="node9" class="node">
<title>k2</title>
<path fill="white" stroke="#222222" stroke-width="1.1" d="M630.41,-185C630.41,-185 600.41,-185 600.41,-185 594.41,-185 588.41,-179 588.41,-173 588.41,-173 588.41,-161 588.41,-161 588.41,-155 594.41,-149 600.41,-149 600.41,-149 630.41,-149 630.41,-149 636.41,-149 642.41,-155 642.41,-161 642.41,-161 642.41,-173 642.41,-173 642.41,-179 636.41,-185 630.41,-185"/>
<text xml:space="preserve" text-anchor="middle" x="615.41" y="-163.3" font-family="Helvetica,sans-Serif" font-size="11.00" fill="#111111">Gain</text>
</g>
<!-- diff&#45;&gt;k2 -->
<g id="edge9" class="edge">
<title>diff&#45;&gt;k2</title>
<path fill="none" stroke="#333333" d="M520.8,-145.04C539.9,-149.52 562.11,-154.73 580.1,-158.95"/>
<polygon fill="#333333" stroke="#333333" points="579.2,-161.26 586.57,-160.47 580.32,-156.49 579.2,-161.26"/>
</g>
<!-- k3 -->
<g id="node10" class="node">
<title>k3</title>
<path fill="#2b2b2b" stroke="#2b2b2b" stroke-width="1.1" d="M630.41,-246C630.41,-246 600.41,-246 600.41,-246 594.41,-246 588.41,-240 588.41,-234 588.41,-234 588.41,-222 588.41,-222 588.41,-216 594.41,-210 600.41,-210 600.41,-210 630.41,-210 630.41,-210 636.41,-210 642.41,-216 642.41,-222 642.41,-222 642.41,-234 642.41,-234 642.41,-240 636.41,-246 630.41,-246"/>
<text xml:space="preserve" text-anchor="middle" x="615.41" y="-224.3" font-family="Helvetica,sans-Serif" font-size="11.00" fill="white">Loss</text>
</g>
<!-- diff&#45;&gt;k3 -->
<g id="edge10" class="edge">
<title>diff&#45;&gt;k3</title>
<path fill="none" stroke="#333333" d="M501.41,-156.25C516.26,-169.17 536.24,-185.53 555.41,-198 563.23,-203.09 572.02,-207.96 580.38,-212.25"/>
<polygon fill="#333333" stroke="#333333" points="579.19,-214.39 586.54,-215.34 581.38,-210.01 579.19,-214.39"/>
</g>
<!-- loss_note -->
<g id="node11" class="node">
<title>loss_note</title>
<text xml:space="preserve" text-anchor="middle" x="779.93" y="-229.95" font-family="Helvetica,sans-Serif" font-size="9.00" fill="#555555">&quot;Loss&quot; is the most heavily</text>
<text xml:space="preserve" text-anchor="middle" x="779.93" y="-219.45" font-family="Helvetica,sans-Serif" font-size="9.00" fill="#555555">weighted threat factor (0.30)</text>
</g>
<!-- k3&#45;&gt;loss_note -->
<g id="edge11" class="edge">
<title>k3&#45;&gt;loss_note</title>
<path fill="none" stroke="#888888" stroke-dasharray="1,5" d="M642.88,-228C661.5,-228 687.3,-228 711.44,-228"/>
</g>
</g>
</svg>
