<?xml version="1.0" encoding="UTF-8" standalone="no"?>
<!DOCTYPE svg PUBLIC "-//W3C//DTD SVG 1.1//EN"
 "http://www.w3.org/Graphics/SVG/1.1/DTD/svg11.dtd">
<!-- Generated by graphviz version 15.1.0 (20260618.0150)
 -->
<!-- Title: risk_model Pages: 1 -->
<svg width="907pt" height="312pt"
 viewBox="0.00 0.00 907.00 312.00" xmlns="http://www.w3.org/2000/svg" xmlns:xlink="http://www.w3.org/1999/xlink">
<g id="graph0" class="graph" transform="scale(1 1) rotate(0) translate(21.6 290.6)">
<title>risk_model</title>
<polygon fill="white" stroke="none" points="-21.6,21.6 -21.6,-290.6 885.09,-290.6 885.09,21.6 -21.6,21.6"/>
<text xml:space="preserve" text-anchor="middle" x="431.74" y="-250.75" font-family="Helvetica,sans-Serif" font-size="15.00" fill="#111111">Track C — Habitat Risk Model</text>
<g id="clust1" class="cluster">
<title>cluster_val</title>
<path fill="white" stroke="#9a9a9a" d="M20,-94C20,-94 250.33,-94 250.33,-94 256.33,-94 262.33,-100 262.33,-106 262.33,-106 262.33,-223 262.33,-223 262.33,-229 256.33,-235 250.33,-235 250.33,-235 20,-235 20,-235 14,-235 8,-229 8,-223 8,-223 8,-106 8,-106 8,-100 14,-94 20,-94"/>
<text xml:space="preserve" text-anchor="middle" x="79" y="-221.5" font-family="Helvetica,sans-Serif" font-size="10.00" fill="#555555"> &#160;VALUE &#160;(what is at stake) &#160;</text>
</g>
<g id="clust2" class="cluster">
<title>cluster_thr</title>
<path fill="white" stroke="#9a9a9a" d="M35.38,-8C35.38,-8 252.58,-8 252.58,-8 258.58,-8 264.58,-14 264.58,-20 264.58,-20 264.58,-74 264.58,-74 264.58,-80 258.58,-86 252.58,-86 252.58,-86 35.38,-86 35.38,-86 29.38,-86 23.38,-80 23.38,-74 23.38,-74 23.38,-20 23.38,-20 23.38,-14 29.38,-8 35.38,-8"/>
<text xml:space="preserve" text-anchor="middle" x="95.12" y="-72.5" font-family="Helvetica,sans-Serif" font-size="10.00" fill="#555555"> &#160;THREAT &#160;(what acts on it) &#160;</text>
</g>
<!-- seg -->
<g id="node1" class="node">
<title>seg</title>
<path fill="white" stroke="#222222" stroke-width="1.1" d="M96.79,-143.7C96.79,-143.7 52,-143.7 52,-143.7 46,-143.7 40,-137.7 40,-131.7 40,-131.7 40,-114.3 40,-114.3 40,-108.3 46,-102.3 52,-102.3 52,-102.3 96.79,-102.3 96.79,-102.3 102.79,-102.3 108.79,-108.3 108.79,-114.3 108.79,-114.3 108.79,-131.7 108.79,-131.7 108.79,-137.7 102.79,-143.7 96.79,-143.7"/>
<text xml:space="preserve" text-anchor="middle" x="74.39" y="-126.05" font-family="Helvetica,sans-Serif" font-size="11.00" fill="#111111">Seagrass</text>
<text xml:space="preserve" text-anchor="middle" x="74.39" y="-112.55" font-family="Helvetica,sans-Serif" font-size="11.00" fill="#111111">presence</text>
</g>
<!-- val -->
<g id="node3" class="node">
<title>val</title>
<path fill="#e9e9e9" stroke="#222222" stroke-width="1.1" d="M242.33,-141C242.33,-141 190.04,-141 190.04,-141 184.04,-141 178.04,-135 178.04,-129 178.04,-129 178.04,-117 178.04,-117 178.04,-111 184.04,-105 190.04,-105 190.04,-105 242.33,-105 242.33,-105 248.33,-105 254.33,-111 254.33,-117 254.33,-117 254.33,-129 254.33,-129 254.33,-135 248.33,-141 242.33,-141"/>
<text xml:space="preserve" text-anchor="middle" x="216.18" y="-119.3" font-family="Helvetica,sans-Serif" font-size="11.00" fill="#111111">Value layer</text>
</g>
<!-- seg&#45;&gt;val -->
<g id="edge1" class="edge">
<title>seg&#45;&gt;val</title>
<path fill="none" stroke="#333333" d="M109.23,-123C127.25,-123 149.68,-123 169.25,-123"/>
<polygon fill="#333333" stroke="#333333" points="169.21,-125.45 176.21,-123 169.21,-120.55 169.21,-125.45"/>
</g>
<!-- dug -->
<g id="node2" class="node">
<title>dug</title>
<path fill="white" stroke="#222222" stroke-width="1.1" d="M120.79,-206.7C120.79,-206.7 28,-206.7 28,-206.7 22,-206.7 16,-200.7 16,-194.7 16,-194.7 16,-177.3 16,-177.3 16,-171.3 22,-165.3 28,-165.3 28,-165.3 120.79,-165.3 120.79,-165.3 126.79,-165.3 132.79,-171.3 132.79,-177.3 132.79,-177.3 132.79,-194.7 132.79,-194.7 132.79,-200.7 126.79,-206.7 120.79,-206.7"/>
<text xml:space="preserve" text-anchor="middle" x="74.39" y="-189.05" font-family="Helvetica,sans-Serif" font-size="11.00" fill="#111111">Dugong&#45;use weight</text>
<text xml:space="preserve" text-anchor="middle" x="74.39" y="-175.55" font-family="Helvetica,sans-Serif" font-size="11.00" fill="#111111">0.6 + 0.4 x use</text>
</g>
<!-- dug&#45;&gt;val -->
<g id="edge2" class="edge">
<title>dug&#45;&gt;val</title>
<path fill="none" stroke="#333333" d="M122.33,-164.85C137.87,-157.84 155.12,-150.07 170.49,-143.14"/>
<polygon fill="#333333" stroke="#333333" points="171.11,-145.55 176.48,-140.44 169.1,-141.08 171.11,-145.55"/>
</g>
<!-- risk -->
<g id="node6" class="node">
<title>risk</title>
<path fill="#e9e9e9" stroke="#222222" stroke-width="1.1" d="M414.12,-99C414.12,-99 311.58,-99 311.58,-99 305.58,-99 299.58,-93 299.58,-87 299.58,-87 299.58,-75 299.58,-75 299.58,-69 305.58,-63 311.58,-63 311.58,-63 414.12,-63 414.12,-63 420.12,-63 426.12,-69 426.12,-75 426.12,-75 426.12,-87 426.12,-87 426.12,-93 420.12,-99 414.12,-99"/>
<text xml:space="preserve" text-anchor="middle" x="362.85" y="-77.3" font-family="Helvetica,sans-Serif" font-size="11.00" fill="#111111">Risk = Value x Threat</text>
</g>
<!-- val&#45;&gt;risk -->
<g id="edge4" class="edge">
<title>val&#45;&gt;risk</title>
<path fill="none" stroke="#333333" d="M254.82,-112.07C266.05,-108.81 278.74,-105.13 291.36,-101.46"/>
<polygon fill="#333333" stroke="#333333" points="291.7,-103.92 297.74,-99.61 290.34,-99.21 291.7,-103.92"/>
</g>
<!-- t5 -->
<g id="node4" class="node">
<title>t5</title>
<path fill="white" stroke="#222222" stroke-width="1.1" d="M105.41,-57.7C105.41,-57.7 43.37,-57.7 43.37,-57.7 37.37,-57.7 31.37,-51.7 31.37,-45.7 31.37,-45.7 31.37,-28.3 31.37,-28.3 31.37,-22.3 37.37,-16.3 43.37,-16.3 43.37,-16.3 105.41,-16.3 105.41,-16.3 111.41,-16.3 117.41,-22.3 117.41,-28.3 117.41,-28.3 117.41,-45.7 117.41,-45.7 117.41,-51.7 111.41,-57.7 105.41,-57.7"/>
<text xml:space="preserve" text-anchor="middle" x="74.39" y="-40.05" font-family="Helvetica,sans-Serif" font-size="11.00" fill="#111111">5 weighted</text>
<text xml:space="preserve" text-anchor="middle" x="74.39" y="-26.55" font-family="Helvetica,sans-Serif" font-size="11.00" fill="#111111">threat factors</text>
</g>
<!-- thr -->
<g id="node5" class="node">
<title>thr</title>
<path fill="#e9e9e9" stroke="#222222" stroke-width="1.1" d="M244.58,-56C244.58,-56 187.79,-56 187.79,-56 181.79,-56 175.79,-50 175.79,-44 175.79,-44 175.79,-32 175.79,-32 175.79,-26 181.79,-20 187.79,-20 187.79,-20 244.58,-20 244.58,-20 250.58,-20 256.58,-26 256.58,-32 256.58,-32 256.58,-44 256.58,-44 256.58,-50 250.58,-56 244.58,-56"/>
<text xml:space="preserve" text-anchor="middle" x="216.18" y="-34.3" font-family="Helvetica,sans-Serif" font-size="11.00" fill="#111111">Threat layer</text>
</g>
<!-- t5&#45;&gt;thr -->
<g id="edge3" class="edge">
<title>t5&#45;&gt;thr</title>
<path fill="none" stroke="#333333" d="M117.72,-37.3C133.32,-37.41 151.1,-37.54 167.17,-37.66"/>
<polygon fill="#333333" stroke="#333333" points="166.87,-40.1 173.89,-37.7 166.9,-35.2 166.87,-40.1"/>
</g>
<!-- thr&#45;&gt;risk -->
<g id="edge5" class="edge">
<title>thr&#45;&gt;risk</title>
<path fill="none" stroke="#333333" d="M257.1,-49.86C267.77,-53.03 279.62,-56.56 291.41,-60.06"/>
<polygon fill="#333333" stroke="#333333" points="290.69,-62.4 298.09,-62.05 292.08,-57.71 290.69,-62.4"/>
</g>
<!-- norm -->
<g id="node7" class="node">
<title>norm</title>
<path fill="white" stroke="#222222" stroke-width="1.1" d="M541.66,-101.7C541.66,-101.7 481.12,-101.7 481.12,-101.7 475.12,-101.7 469.12,-95.7 469.12,-89.7 469.12,-89.7 469.12,-72.3 469.12,-72.3 469.12,-66.3 475.12,-60.3 481.12,-60.3 481.12,-60.3 541.66,-60.3 541.66,-60.3 547.66,-60.3 553.66,-66.3 553.66,-72.3 553.66,-72.3 553.66,-89.7 553.66,-89.7 553.66,-95.7 547.66,-101.7 541.66,-101.7"/>
<text xml:space="preserve" text-anchor="middle" x="511.39" y="-84.05" font-family="Helvetica,sans-Serif" font-size="11.00" fill="#111111">Rescale 0&#45;1</text>
<text xml:space="preserve" text-anchor="middle" x="511.39" y="-70.55" font-family="Helvetica,sans-Serif" font-size="11.00" fill="#111111">(relative risk)</text>
</g>
<!-- risk&#45;&gt;norm -->
<g id="edge6" class="edge">
<title>risk&#45;&gt;norm</title>
<path fill="none" stroke="#333333" d="M426.42,-81C437.83,-81 449.59,-81 460.56,-81"/>
<polygon fill="#333333" stroke="#333333" points="460.27,-83.45 467.27,-81 460.27,-78.55 460.27,-83.45"/>
</g>
<!-- cls -->
<g id="node8" class="node">
<title>cls</title>
<path fill="white" stroke="#222222" stroke-width="1.1" d="M716.45,-101.7C716.45,-101.7 608.66,-101.7 608.66,-101.7 602.66,-101.7 596.66,-95.7 596.66,-89.7 596.66,-89.7 596.66,-72.3 596.66,-72.3 596.66,-66.3 602.66,-60.3 608.66,-60.3 608.66,-60.3 716.45,-60.3 716.45,-60.3 722.45,-60.3 728.45,-66.3 728.45,-72.3 728.45,-72.3 728.45,-89.7 728.45,-89.7 728.45,-95.7 722.45,-101.7 716.45,-101.7"/>
<text xml:space="preserve" text-anchor="middle" x="662.55" y="-84.05" font-family="Helvetica,sans-Serif" font-size="11.00" fill="#111111">5 quantile classes</text>
<text xml:space="preserve" text-anchor="middle" x="662.55" y="-70.55" font-family="Helvetica,sans-Serif" font-size="11.00" fill="#111111">Very Low &#45;&gt; Very High</text>
</g>
<!-- norm&#45;&gt;cls -->
<g id="edge7" class="edge">
<title>norm&#45;&gt;cls</title>
<path fill="none" stroke="#333333" d="M553.94,-81C564.48,-81 576.13,-81 587.75,-81"/>
<polygon fill="#333333" stroke="#333333" points="587.68,-83.45 594.68,-81 587.68,-78.55 587.68,-83.45"/>
</g>
<!-- hot -->
<g id="node9" class="node">
<title>hot</title>
<path fill="#2b2b2b" stroke="#2b2b2b" stroke-width="1.1" d="M851.49,-101.7C851.49,-101.7 783.45,-101.7 783.45,-101.7 777.45,-101.7 771.45,-95.7 771.45,-89.7 771.45,-89.7 771.45,-72.3 771.45,-72.3 771.45,-66.3 777.45,-60.3 783.45,-60.3 783.45,-60.3 851.49,-60.3 851.49,-60.3 857.49,-60.3 863.49,-66.3 863.49,-72.3 863.49,-72.3 863.49,-89.7 863.49,-89.7 863.49,-95.7 857.49,-101.7 851.49,-101.7"/>
<text xml:space="preserve" text-anchor="middle" x="817.47" y="-84.05" font-family="Helvetica,sans-Serif" font-size="11.00" fill="white">Rank hotspots</text>
<text xml:space="preserve" text-anchor="middle" x="817.47" y="-70.55" font-family="Helvetica,sans-Serif" font-size="11.00" fill="white">(&gt;= 5 ha)</text>
</g>
<!-- cls&#45;&gt;hot -->
<g id="edge8" class="edge">
<title>cls&#45;&gt;hot</title>
<path fill="none" stroke="#333333" d="M728.85,-81C740.23,-81 751.96,-81 762.98,-81"/>
<polygon fill="#333333" stroke="#333333" points="762.74,-83.45 769.74,-81 762.74,-78.55 762.74,-83.45"/>
</g>
</g>
</svg>
