<?xml version="1.0" encoding="UTF-8" standalone="no"?>
<!DOCTYPE svg PUBLIC "-//W3C//DTD SVG 1.1//EN"
 "http://www.w3.org/Graphics/SVG/1.1/DTD/svg11.dtd">
<!-- Generated by graphviz version 15.1.0 (20260618.0150)
 -->
<!-- Title: threat_model Pages: 1 -->
<svg width="858pt" height="391pt"
 viewBox="0.00 0.00 858.00 391.00" xmlns="http://www.w3.org/2000/svg" xmlns:xlink="http://www.w3.org/1999/xlink">
<g id="graph0" class="graph" transform="scale(1 1) rotate(0) translate(21.6 369.6)">
<title>threat_model</title>
<polygon fill="white" stroke="none" points="-21.6,21.6 -21.6,-369.6 836.83,-369.6 836.83,21.6 -21.6,21.6"/>
<text xml:space="preserve" text-anchor="middle" x="407.61" y="-329.75" font-family="Helvetica,sans-Serif" font-size="15.00" fill="#111111">Track C — Weighted Threat Model</text>
<g id="clust1" class="cluster">
<title>cluster_f</title>
<path fill="white" stroke="#9a9a9a" d="M12,-8C12,-8 206.5,-8 206.5,-8 212.5,-8 218.5,-14 218.5,-20 218.5,-20 218.5,-302 218.5,-302 218.5,-308 212.5,-314 206.5,-314 206.5,-314 12,-314 12,-314 6,-314 0,-308 0,-302 0,-302 0,-20 0,-20 0,-14 6,-8 12,-8"/>
<text xml:space="preserve" text-anchor="middle" x="109.25" y="-300.5" font-family="Helvetica,sans-Serif" font-size="10.00" fill="#555555"> &#160;FIVE THREAT FACTORS &#160;(normalised 0&#45;1) &#160;</text>
</g>
<!-- f1 -->
<g id="node1" class="node">
<title>f1</title>
<path fill="white" stroke="#222222" stroke-width="1.1" d="M165.64,-285.7C165.64,-285.7 51.86,-285.7 51.86,-285.7 45.86,-285.7 39.86,-279.7 39.86,-273.7 39.86,-273.7 39.86,-256.3 39.86,-256.3 39.86,-250.3 45.86,-244.3 51.86,-244.3 51.86,-244.3 165.64,-244.3 165.64,-244.3 171.64,-244.3 177.64,-250.3 177.64,-256.3 177.64,-256.3 177.64,-273.7 177.64,-273.7 177.64,-279.7 171.64,-285.7 165.64,-285.7"/>
<text xml:space="preserve" text-anchor="middle" x="108.75" y="-268.05" font-family="Helvetica,sans-Serif" font-size="11.00" fill="#111111">Observed seagrass loss</text>
<text xml:space="preserve" text-anchor="middle" x="108.75" y="-254.55" font-family="Helvetica,sans-Serif" font-size="11.00" fill="#111111">(2019 &#45;&gt; 2024)</text>
</g>
<!-- sum -->
<g id="node6" class="node">
<title>sum</title>
<ellipse fill="#e9e9e9" stroke="#222222" stroke-width="1.1" cx="312.45" cy="-151" rx="25.2" ry="25.2"/>
<text xml:space="preserve" text-anchor="middle" x="312.45" y="-153.5" font-family="Helvetica,sans-Serif" font-size="10.00" fill="#111111">Weighted</text>
<text xml:space="preserve" text-anchor="middle" x="312.45" y="-141.5" font-family="Helvetica,sans-Serif" font-size="10.00" fill="#111111">sum</text>
</g>
<!-- f1&#45;&gt;sum -->
<g id="edge1" class="edge">
<title>f1&#45;&gt;sum</title>
<path fill="none" stroke="#333333" d="M178.15,-252.9C191.99,-248.95 206.09,-243.77 218.5,-237 246.59,-221.68 272.79,-195.98 290.16,-176.66"/>
<polygon fill="#333333" stroke="#333333" points="291.91,-178.38 294.7,-171.51 288.23,-175.14 291.91,-178.38"/>
<text xml:space="preserve" text-anchor="middle" x="248.88" y="-224.47" font-family="Helvetica,sans-Serif" font-size="10.00" fill="#333333">0.30</text>
</g>
<!-- f2 -->
<g id="node2" class="node">
<title>f2</title>
<path fill="white" stroke="#222222" stroke-width="1.1" d="M158.9,-228.7C158.9,-228.7 58.6,-228.7 58.6,-228.7 52.6,-228.7 46.6,-222.7 46.6,-216.7 46.6,-216.7 46.6,-199.3 46.6,-199.3 46.6,-193.3 52.6,-187.3 58.6,-187.3 58.6,-187.3 158.9,-187.3 158.9,-187.3 164.9,-187.3 170.9,-193.3 170.9,-199.3 170.9,-199.3 170.9,-216.7 170.9,-216.7 170.9,-222.7 164.9,-228.7 158.9,-228.7"/>
<text xml:space="preserve" text-anchor="middle" x="108.75" y="-211.05" font-family="Helvetica,sans-Serif" font-size="11.00" fill="#111111">Coastal development</text>
<text xml:space="preserve" text-anchor="middle" x="108.75" y="-197.55" font-family="Helvetica,sans-Serif" font-size="11.00" fill="#111111">/ dredging</text>
</g>
<!-- f2&#45;&gt;sum -->
<g id="edge2" class="edge">
<title>f2&#45;&gt;sum</title>
<path fill="none" stroke="#333333" d="M171.43,-192.69C186.85,-188.71 203.31,-184.32 218.5,-180 239.23,-174.1 262.36,-166.89 280.36,-161.13"/>
<polygon fill="#333333" stroke="#333333" points="280.89,-163.53 286.8,-159.06 279.39,-158.87 280.89,-163.53"/>
<text xml:space="preserve" text-anchor="middle" x="248.88" y="-175.72" font-family="Helvetica,sans-Serif" font-size="10.00" fill="#333333">0.20</text>
</g>
<!-- f3 -->
<g id="node3" class="node">
<title>f3</title>
<path fill="white" stroke="#222222" stroke-width="1.1" d="M143.89,-171.7C143.89,-171.7 73.61,-171.7 73.61,-171.7 67.61,-171.7 61.61,-165.7 61.61,-159.7 61.61,-159.7 61.61,-142.3 61.61,-142.3 61.61,-136.3 67.61,-130.3 73.61,-130.3 73.61,-130.3 143.89,-130.3 143.89,-130.3 149.89,-130.3 155.89,-136.3 155.89,-142.3 155.89,-142.3 155.89,-159.7 155.89,-159.7 155.89,-165.7 149.89,-171.7 143.89,-171.7"/>
<text xml:space="preserve" text-anchor="middle" x="108.75" y="-154.05" font-family="Helvetica,sans-Serif" font-size="11.00" fill="#111111">Thermal stress</text>
<text xml:space="preserve" text-anchor="middle" x="108.75" y="-140.55" font-family="Helvetica,sans-Serif" font-size="11.00" fill="#111111">(summer SST)</text>
</g>
<!-- f3&#45;&gt;sum -->
<g id="edge3" class="edge">
<title>f3&#45;&gt;sum</title>
<path fill="none" stroke="#333333" d="M156.28,-151C193.66,-151 245.23,-151 278.46,-151"/>
<polygon fill="#333333" stroke="#333333" points="278.39,-153.45 285.39,-151 278.39,-148.55 278.39,-153.45"/>
<text xml:space="preserve" text-anchor="middle" x="248.88" y="-153.5" font-family="Helvetica,sans-Serif" font-size="10.00" fill="#333333">0.20</text>
</g>
<!-- f4 -->
<g id="node4" class="node">
<title>f4</title>
<path fill="white" stroke="#222222" stroke-width="1.1" d="M154.39,-114.7C154.39,-114.7 63.11,-114.7 63.11,-114.7 57.11,-114.7 51.11,-108.7 51.11,-102.7 51.11,-102.7 51.11,-85.3 51.11,-85.3 51.11,-79.3 57.11,-73.3 63.11,-73.3 63.11,-73.3 154.39,-73.3 154.39,-73.3 160.39,-73.3 166.39,-79.3 166.39,-85.3 166.39,-85.3 166.39,-102.7 166.39,-102.7 166.39,-108.7 160.39,-114.7 154.39,-114.7"/>
<text xml:space="preserve" text-anchor="middle" x="108.75" y="-97.05" font-family="Helvetica,sans-Serif" font-size="11.00" fill="#111111">Desalination /</text>
<text xml:space="preserve" text-anchor="middle" x="108.75" y="-83.55" font-family="Helvetica,sans-Serif" font-size="11.00" fill="#111111">industrial discharge</text>
</g>
<!-- f4&#45;&gt;sum -->
<g id="edge4" class="edge">
<title>f4&#45;&gt;sum</title>
<path fill="none" stroke="#333333" d="M166.9,-108.14C183.58,-112.42 201.81,-117.25 218.5,-122 239.23,-127.9 262.36,-135.11 280.36,-140.87"/>
<polygon fill="#333333" stroke="#333333" points="279.39,-143.13 286.8,-142.94 280.89,-138.47 279.39,-143.13"/>
<text xml:space="preserve" text-anchor="middle" x="248.88" y="-135.99" font-family="Helvetica,sans-Serif" font-size="10.00" fill="#333333">0.15</text>
</g>
<!-- f5 -->
<g id="node5" class="node">
<title>f5</title>
<path fill="white" stroke="#222222" stroke-width="1.1" d="M155.14,-57.7C155.14,-57.7 62.36,-57.7 62.36,-57.7 56.36,-57.7 50.36,-51.7 50.36,-45.7 50.36,-45.7 50.36,-28.3 50.36,-28.3 50.36,-22.3 56.36,-16.3 62.36,-16.3 62.36,-16.3 155.14,-16.3 155.14,-16.3 161.14,-16.3 167.14,-22.3 167.14,-28.3 167.14,-28.3 167.14,-45.7 167.14,-45.7 167.14,-51.7 161.14,-57.7 155.14,-57.7"/>
<text xml:space="preserve" text-anchor="middle" x="108.75" y="-40.05" font-family="Helvetica,sans-Serif" font-size="11.00" fill="#111111">Vessel /</text>
<text xml:space="preserve" text-anchor="middle" x="108.75" y="-26.55" font-family="Helvetica,sans-Serif" font-size="11.00" fill="#111111">navigation pressure</text>
</g>
<!-- f5&#45;&gt;sum -->
<g id="edge5" class="edge">
<title>f5&#45;&gt;sum</title>
<path fill="none" stroke="#333333" d="M167.63,-46.31C184.68,-50.51 202.92,-56.51 218.5,-65 246.59,-80.32 272.79,-106.02 290.16,-125.34"/>
<polygon fill="#333333" stroke="#333333" points="288.23,-126.86 294.7,-130.49 291.91,-123.62 288.23,-126.86"/>
<text xml:space="preserve" text-anchor="middle" x="248.88" y="-95.69" font-family="Helvetica,sans-Serif" font-size="10.00" fill="#333333">0.15</text>
</g>
<!-- out -->
<g id="node7" class="node">
<title>out</title>
<path fill="#2b2b2b" stroke="#2b2b2b" stroke-width="1.1" d="M514.19,-171.7C514.19,-171.7 408.65,-171.7 408.65,-171.7 402.65,-171.7 396.65,-165.7 396.65,-159.7 396.65,-159.7 396.65,-142.3 396.65,-142.3 396.65,-136.3 402.65,-130.3 408.65,-130.3 408.65,-130.3 514.19,-130.3 514.19,-130.3 520.19,-130.3 526.19,-136.3 526.19,-142.3 526.19,-142.3 526.19,-159.7 526.19,-159.7 526.19,-165.7 520.19,-171.7 514.19,-171.7"/>
<text xml:space="preserve" text-anchor="middle" x="461.42" y="-154.05" font-family="Helvetica,sans-Serif" font-size="11.00" fill="white">Combined threat</text>
<text xml:space="preserve" text-anchor="middle" x="461.42" y="-140.55" font-family="Helvetica,sans-Serif" font-size="11.00" fill="white">pressure surface (0&#45;1)</text>
</g>
<!-- sum&#45;&gt;out -->
<g id="edge6" class="edge">
<title>sum&#45;&gt;out</title>
<path fill="none" stroke="#333333" d="M338.05,-151C351.87,-151 369.91,-151 387.87,-151"/>
<polygon fill="#333333" stroke="#333333" points="387.59,-153.45 394.59,-151 387.59,-148.55 387.59,-153.45"/>
</g>
<!-- note -->
<g id="node8" class="node">
<title>note</title>
<text xml:space="preserve" text-anchor="middle" x="700.21" y="-152.95" font-family="Helvetica,sans-Serif" font-size="9.00" fill="#666666">Distance factors use exp(&#45;d / lambda);</text>
<text xml:space="preserve" text-anchor="middle" x="700.21" y="-142.45" font-family="Helvetica,sans-Serif" font-size="9.00" fill="#666666">weights documented in RISK_METHODOLOGY.md</text>
</g>
<!-- out&#45;&gt;note -->
<g id="edge7" class="edge">
<title>out&#45;&gt;note</title>
<path fill="none" stroke="#888888" stroke-dasharray="1,5" d="M526.5,-151C544.72,-151 565.12,-151 585.35,-151"/>
</g>
</g>
</svg>
